<svg xmlns="http://www.w3.org/2000/svg" viewBox="0 0 400 400" role="img" aria-label="medica"><rect width="400" height="400" rx="52" fill="#e4eff9"/><circle cx="205" cy="186" r="146" fill="white" opacity=".6"/><ellipse cx="200" cy="348" rx="112" ry="14" fill="#242342" opacity=".09"/><g stroke="#302c46" stroke-width="6" stroke-linecap="round" stroke-linejoin="round"><path d="M100 339 V297 Q105 253 157 253 L200 278 L243 253 Q295 253 300 297 V339Z" fill="#fff"/><path d="M127 157 Q125 93 200 94 Q276 94 273 157" fill="#493145"/><rect x="135" y="126" width="130" height="144" rx="62" fill="#b97550"/><g fill="#302c46" stroke="none"><circle cx="163" cy="183" r="8"/><circle cx="237" cy="183" r="8"/></g><path d="M182 225 Q200 240 220 224" fill="none"/><path d="M149 256 L174 314 L200 278 L226 314 L251 256" fill="#f0f5ff"/><path d="M164 264 V293 Q164 323 198 323 Q229 323 229 295 V267" fill="none" stroke="#6387b5"/><circle cx="231" cy="296" r="12" fill="#fff"/><path d="M118 121 Q126 82 200 83 Q274 82 282 121Z" fill="#fff"/><path d="M200 90 V113 M189 101 H211" stroke="#d84e70" stroke-width="9"/></g></svg>